<svg width="64" height="22" viewBox="0 0 64 22" fill="none" xmlns="http://www.w3.org/2000/svg"><rect x="8" y="6" width="10" height="2" rx="1" fill="currentColor"></rect><rect x="8" y="10" width="10" height="2" rx="1" fill="currentColor"></rect><rect x="8" y="14" width="6" height="2" rx="1" fill="currentColor"></rect><rect x="21" y="6" width="10" height="2" rx="1" fill="currentColor"></rect><rect x="21" y="10" width="10" height="2" rx="1" fill="currentColor"></rect><rect x="21" y="14" width="6" height="2" rx="1" fill="currentColor"></rect><rect x="34" y="6" width="9" height="2" rx="1" fill="currentColor"></rect><rect x="34" y="10" width="9" height="2" rx="1" fill="currentColor"></rect><rect x="34" y="14" width="6" height="2" rx="1" fill="currentColor"></rect><rect x="46" y="6" width="10" height="2" rx="1" fill="currentColor"></rect><rect x="46" y="10" width="10" height="2" rx="1" fill="currentColor"></rect><rect x="46" y="14" width="6" height="2" rx="1" fill="currentColor"></rect></svg>